<svg width="166" height="161" viewBox="0 0 166 161" fill="none" xmlns="http://www.w3.org/2000/svg">
<path d="M68.1152 32.0099L68.1152 32.0099L68.1137 32.0114C67.6776 32.4524 67.6755 33.1692 68.12 33.6088L68.3837 33.3422L68.1189 33.6077C72.9272 38.4027 79.3233 41.0458 86.1142 41.0458C92.9049 41.0458 99.2975 38.4028 104.109 33.6083C104.553 33.1684 104.551 32.4508 104.11 32.0099C103.672 31.5724 102.956 31.5669 102.513 32.0094C98.1276 36.3786 92.306 38.7854 86.1142 38.7854C79.9225 38.7854 74.1011 36.3787 69.7157 32.0096C69.2737 31.5679 68.5571 31.568 68.1152 32.0099Z" fill="#FFFDFA" stroke="#FFFDFA" stroke-width="0.75"/>
<path d="M102.513 68.1265L102.516 68.129C102.733 68.3421 103.018 68.4559 103.313 68.4559C103.602 68.4559 103.889 68.3472 104.11 68.126L104.111 68.1246C104.551 67.6805 104.553 66.9681 104.11 66.5253L104.109 66.5247C99.2979 61.7333 92.9085 59.0901 86.1142 59.0901C79.3202 59.0901 72.9273 61.7299 68.1189 66.5249L68.1185 66.5253C67.6787 66.9651 67.6712 67.682 68.1152 68.126C68.5571 68.5679 69.2736 68.568 69.7156 68.1264C74.0976 63.7573 79.9224 61.3505 86.1142 61.3505C92.306 61.3505 98.1276 63.7573 102.513 68.1265ZM68.3804 67.8609C68.0849 67.5654 68.0882 67.086 68.3837 66.7905L69.4508 67.8609C69.1553 68.1564 68.6759 68.1564 68.3804 67.8609Z" fill="#FFFDFA" stroke="#FFFDFA" stroke-width="0.75"/>
<path d="M109.082 46.5546C109.167 47.1143 109.654 47.5141 110.202 47.5141C110.257 47.5141 110.317 47.5094 110.375 47.4992C110.986 47.4034 111.411 46.8305 111.318 46.2131L111.318 46.2129C110.501 40.8173 108.018 35.9175 104.14 32.0394C100.265 28.1611 95.3618 25.6777 89.9663 24.8612L89.9661 24.8612C89.3502 24.7683 88.7695 25.1887 88.6758 25.8098C88.5823 26.4298 89.0107 27.0036 89.6274 27.0967C99.5714 28.6055 107.577 36.6076 109.082 46.5546ZM109.082 46.5546L109.453 46.4988M109.082 46.5546C109.082 46.5547 109.082 46.5548 109.082 46.555L109.453 46.4988M109.453 46.4988C109.509 46.8699 109.834 47.1391 110.202 47.1391C110.238 47.1391 110.277 47.1358 110.313 47.1293M109.453 46.4988L110.313 47.1293M110.313 47.1293C110.724 47.0669 111.01 46.6827 110.947 46.269C110.143 40.9531 107.697 36.1265 103.875 32.3045C100.056 28.4826 95.2261 26.0365 89.9102 25.232L110.313 47.1293Z" fill="#FFFDFA" stroke="#FFFDFA" stroke-width="0.75"/>
<path d="M111.318 53.9162L111.318 53.9164C110.501 59.3119 108.018 64.215 104.14 68.0932C100.265 71.971 95.3631 74.4508 89.9689 75.2709C89.9112 75.2804 89.8522 75.2854 89.7953 75.2854C89.2449 75.2854 88.7637 74.8836 88.6793 74.3241C88.5815 73.706 89.0113 73.1287 89.6277 73.0358C99.5716 71.5269 107.577 63.5247 109.082 53.5778L111.318 53.9162ZM111.318 53.9162C111.411 53.2975 110.985 52.7235 110.371 52.6295C109.753 52.5314 109.176 52.9611 109.082 53.5776L111.318 53.9162Z" fill="#FFFDFA" stroke="#FFFDFA" stroke-width="0.75"/>
<path d="M63.1433 53.5778C63.0506 52.963 62.478 52.5312 61.858 52.6295C61.2413 52.7234 60.8142 53.3007 60.9078 53.9166C61.7276 59.312 64.211 64.2149 68.0858 68.0931L68.086 68.0933C71.963 71.967 76.8643 74.45 82.2578 75.2706C82.3165 75.2808 82.3764 75.2854 82.4337 75.2854H82.8087V75.2182C83.1893 75.0844 83.486 74.7514 83.55 74.3222C83.6429 73.707 83.2163 73.1292 82.6017 73.0358L82.6016 73.0358C72.6544 71.5271 64.6522 63.525 63.1433 53.5778ZM63.1433 53.5778L62.7725 53.6337M63.1433 53.5778C63.1433 53.5777 63.1433 53.5776 63.1433 53.5775L62.7725 53.6337M62.7725 53.6337C64.3059 63.7434 72.4357 71.8732 82.5454 73.4066L68.3511 67.828C64.5324 64.0061 62.0863 59.1762 61.2786 53.8603C61.2162 53.4499 61.5018 53.0624 61.9155 53C62.326 52.9344 62.7101 53.22 62.7725 53.6337Z" fill="#FFFDFA" stroke="#FFFDFA" stroke-width="0.75"/>
<path d="M60.9078 46.2131L60.9078 46.2127C61.7276 40.8175 64.2076 35.9144 68.0859 32.0394L60.9078 46.2131ZM60.9078 46.2131C60.8152 46.8271 61.2347 47.3973 61.8409 47.4976C61.919 47.5144 61.9897 47.5142 62.0213 47.5141C62.0235 47.5141 62.0254 47.5141 62.0272 47.5141C62.5756 47.5141 63.059 47.1173 63.1433 46.5551C64.652 36.6078 72.6543 28.6055 82.6016 27.0967L82.6017 27.0967C83.216 27.0034 83.6432 26.4289 83.5499 25.8098C83.4569 25.1932 82.8795 24.7635 82.2613 24.8615C76.8663 25.6782 71.9638 28.1615 68.086 32.0393L60.9078 46.2131Z" fill="#FFFDFA" stroke="#FFFDFA" stroke-width="0.75"/>
<path d="M81.4282 16.573L81.4268 16.5732C66.5313 18.6385 54.6888 30.4841 52.6231 45.3762C52.5357 45.9912 52.9622 46.5639 53.578 46.6524C53.644 46.664 53.7067 46.6638 53.7342 46.6637L53.7398 46.6637C54.298 46.6637 54.7811 46.2564 54.8598 45.6903L54.8599 45.6901C56.7872 31.7934 67.8399 20.7406 81.7367 18.8133L81.7382 18.8131C82.354 18.7251 82.7879 18.1573 82.7002 17.5368C82.6156 16.9152 82.0433 16.49 81.4282 16.573Z" fill="#FFFDFA" stroke="#FFFDFA" stroke-width="0.75"/>
<path d="M118.65 46.6557C119.266 46.5643 119.689 45.9957 119.606 45.3815L119.606 45.3802C117.54 30.4847 105.695 18.6423 90.7997 16.5766C90.1833 16.4884 89.6089 16.9213 89.5252 17.5411M118.65 46.6557L118.486 46.2887C118.115 46.2887 117.79 46.0161 117.737 45.6385C115.787 31.5756 104.603 20.3922 90.5436 18.4418M118.65 46.6557C118.583 46.6671 118.524 46.667 118.491 46.667L118.486 46.667H118.111V46.5995M118.65 46.6557L118.111 46.5995M89.5252 17.5411C89.5252 17.5411 89.5252 17.541 89.5252 17.5409L89.8968 17.5914L89.5252 17.5413C89.5252 17.5412 89.5252 17.5412 89.5252 17.5411ZM89.5252 17.5411C89.4418 18.1553 89.8729 18.7298 90.4935 18.8135L90.5436 18.4418M90.5436 18.4418L90.4921 18.8133C104.386 20.7406 115.438 31.7933 117.366 45.6901L117.366 45.6902C117.426 46.1241 117.725 46.4638 118.111 46.5995M90.5436 18.4418L118.111 46.5995" fill="#FFFDFA" stroke="#FFFDFA" stroke-width="0.75"/>
<path d="M89.5252 82.5913L89.5254 82.5928C89.604 83.1576 90.0892 83.5695 90.6454 83.5695C90.6993 83.5695 90.7549 83.5645 90.809 83.5552C105.701 81.4871 117.541 69.6425 119.606 54.7524L119.606 54.751C119.689 54.1347 119.263 53.5644 118.644 53.4759C118.021 53.387 117.454 53.826 117.366 54.4373L117.366 54.4392C115.438 68.336 104.386 79.3887 90.4922 81.316L90.4911 81.3161C89.8692 81.4043 89.4419 81.974 89.5252 82.5913Z" fill="#FFFDFA" stroke="#FFFDFA" stroke-width="0.75"/>
<path d="M52.9945 54.7009L52.623 54.7524C54.6879 69.6449 66.5261 81.4858 81.4174 83.5548C81.4732 83.5651 81.5297 83.5695 81.5833 83.5695C82.139 83.5695 82.6211 83.1616 82.7 82.5968C82.7884 81.976 82.3544 81.4075 81.7382 81.3195L81.7368 81.3193C67.8401 79.3887 56.7875 68.3362 54.86 54.4431C54.7761 53.8244 54.206 53.3913 53.5864 53.479C52.9677 53.5633 52.5347 54.134 52.6233 54.7539L52.9945 54.7009ZM52.9945 54.7009C52.9354 54.2871 53.2243 53.9063 53.638 53.8504L82.3287 82.5444C82.2762 82.922 81.9544 83.1945 81.5833 83.1945C81.5472 83.1945 81.5111 83.1912 81.4783 83.1847C66.7488 81.1424 55.0368 69.4303 52.9945 54.7009Z" fill="#FFFDFA" stroke="#FFFDFA" stroke-width="0.75"/>
<path d="M65.7179 51.1981H106.508C107.132 51.1981 107.638 50.692 107.638 50.0679C107.638 49.4438 107.132 48.9377 106.508 48.9377H65.7179C65.0938 48.9377 64.5876 49.4438 64.5876 50.0679C64.5876 50.692 65.0938 51.1981 65.7179 51.1981Z" fill="#FFFDFA" stroke="#FFFDFA" stroke-width="0.75"/>
<path d="M84.9841 71.2165C84.9841 71.8406 85.4902 72.3467 86.1143 72.3467C86.7385 72.3467 87.2445 71.8406 87.2445 71.2165V28.916C87.2445 28.2919 86.7385 27.7858 86.1143 27.7858C85.4902 27.7858 84.9841 28.2919 84.9841 28.916V71.2165Z" fill="#FFFDFA" stroke="#FFFDFA" stroke-width="0.75"/>
<path d="M89.1743 27.34L88.9841 27.6631C91.3381 29.0489 93.3893 32.0146 94.8525 35.9888C96.3112 39.9509 97.1655 44.8627 97.1655 50.0646C97.1655 55.2666 96.3112 60.1784 94.8525 64.1404C93.3893 68.1146 91.3381 71.0804 88.9841 72.4661L88.9836 72.4664C88.4473 72.7833 88.2614 73.4752 88.5825 74.0148C88.7934 74.372 89.171 74.5729 89.5585 74.5729H89.9335V74.5048C90.0005 74.4809 90.0663 74.4502 90.1302 74.4123C92.9588 72.7473 95.2782 69.4418 96.8897 65.1918C98.5047 60.9327 99.4259 55.6817 99.4259 50.0613C99.4259 44.441 98.5047 39.1908 96.8897 34.9325C95.2781 30.683 92.9584 27.3782 90.1296 25.7133L90.1292 25.7131C89.593 25.3982 88.8976 25.5792 88.5824 26.1147C88.2624 26.6527 88.4456 27.3498 88.9858 27.6641L89.1743 27.34ZM89.1743 27.34C88.8132 27.1298 88.6917 26.6636 88.9051 26.3057M89.1743 27.34C94.0995 30.2392 97.5405 39.5839 97.5405 50.0646C97.5405 60.5453 94.0995 69.89 89.1743 72.7893C88.8132 73.0027 88.6917 73.4657 88.9051 73.8236C88.9749 73.942 89.0719 74.0348 89.1835 74.0984L88.9051 26.3057M88.9051 26.3057C89.1153 25.9478 89.5815 25.8263 89.9394 26.0364L88.9051 26.3057Z" fill="#FFFDFA" stroke="#FFFDFA" stroke-width="0.75"/>
<path d="M82.097 25.7156L82.0955 25.7165C79.2683 27.3798 76.9485 30.6838 75.3365 34.9333C73.7211 39.1916 72.7991 44.4426 72.7991 50.0646C72.7991 55.6866 73.7211 60.9385 75.3365 65.1976C76.9484 69.4475 79.2678 72.7522 82.0947 74.4156C82.1597 74.4542 82.2267 74.4852 82.2948 74.5092V74.5762H82.6698C83.0559 74.5762 83.4351 74.3763 83.6434 74.0165C83.9629 73.4777 83.7776 72.7875 83.246 72.4705L83.2441 72.4694C80.8884 71.0836 78.8374 68.1187 77.3746 64.145C75.9163 60.1834 75.0627 55.2716 75.0627 50.0679C75.0627 44.8643 75.9163 39.9525 77.3746 35.9909C78.8374 32.0171 80.8884 29.0522 83.2441 27.6665L83.246 27.6653C83.7784 27.3478 83.9624 26.6606 83.6434 26.1193C83.3269 25.5768 82.6336 25.4034 82.097 25.7156Z" fill="#FFFDFA" stroke="#FFFDFA" stroke-width="0.75"/>
<path d="M108.396 50.0646C108.396 48.6068 109.582 47.4189 111.042 47.4189C112.5 47.4189 113.688 48.604 113.688 50.0646C113.688 51.526 112.503 52.7137 111.042 52.7137C109.582 52.7137 108.396 51.523 108.396 50.0646ZM106.133 50.0646C106.133 52.7737 108.333 54.974 111.042 54.974C113.748 54.974 115.948 52.7701 115.948 50.0646C115.948 47.359 113.751 45.1585 111.042 45.1585C108.333 45.1585 106.133 47.3552 106.133 50.0646Z" fill="#FFFDFA" stroke="#FFFDFA" stroke-width="0.75"/>
<path d="M58.5409 50.0646C58.5409 48.607 59.7291 47.4189 61.1867 47.4189C62.6445 47.4189 63.8324 48.604 63.8324 50.0646C63.8324 51.5258 62.644 52.7137 61.1867 52.7137C59.7296 52.7137 58.5409 51.5227 58.5409 50.0646ZM56.2805 50.0646C56.2805 52.7735 58.4807 54.974 61.1867 54.974C63.8928 54.974 66.0928 52.7701 66.0928 50.0646C66.0928 47.3588 63.8925 45.1585 61.1867 45.1585C58.4811 45.1585 56.2805 47.3554 56.2805 50.0646Z" fill="#FFFDFA" stroke="#FFFDFA" stroke-width="0.75"/>
<path d="M83.4686 25.1401C83.4686 23.6787 84.6541 22.491 86.1144 22.491C87.5715 22.491 88.7602 23.682 88.7602 25.1401C88.7602 26.598 87.575 27.7859 86.1144 27.7859C84.6535 27.7859 83.4686 26.601 83.4686 25.1401ZM81.2083 25.1401C81.2083 27.8459 83.4086 30.0462 86.1144 30.0462C88.8202 30.0462 91.0205 27.8459 91.0205 25.1401C91.0205 22.4343 88.8202 20.2339 86.1144 20.2339C83.4086 20.2339 81.2083 22.4343 81.2083 25.1401Z" fill="#FFFDFA" stroke="#FFFDFA" stroke-width="0.75"/>
<path d="M83.4686 74.9925C83.4686 73.5346 84.6538 72.3467 86.1144 72.3467C87.572 72.3467 88.7602 73.5349 88.7602 74.9925C88.7602 76.4503 87.575 77.6382 86.1144 77.6382C84.6538 77.6382 83.4686 76.4503 83.4686 74.9925ZM81.2083 74.9925C81.2083 77.6979 83.4083 79.9019 86.1144 79.9019C88.8206 79.9019 91.0205 77.6979 91.0205 74.9925C91.0205 72.2867 88.8202 70.0863 86.1144 70.0863C83.4086 70.0863 81.2083 72.2867 81.2083 74.9925Z" fill="#FFFDFA" stroke="#FFFDFA" stroke-width="0.75"/>
<path d="M54.7613 80.2788C54.7613 79.2386 55.6109 78.3883 56.6552 78.3883C57.6961 78.3883 58.5458 79.2353 58.5458 80.2788C58.5458 81.3227 57.6991 82.1694 56.6552 82.1694C55.6109 82.1694 54.7613 81.3191 54.7613 80.2788ZM52.501 80.2821C52.501 82.5711 54.3633 84.4331 56.6552 84.4331C58.944 84.4331 60.8061 82.5709 60.8061 80.2821C60.8061 77.9935 58.9475 76.1312 56.6552 76.1312C54.3633 76.1312 52.501 77.9931 52.501 80.2821Z" fill="#FFFDFA" stroke="#FFFDFA" stroke-width="0.75"/>
<path d="M108.393 84.0606C108.393 83.4365 108.902 82.9252 109.529 82.9252C110.155 82.9252 110.664 83.4365 110.664 84.0606C110.664 84.6837 110.156 85.1927 109.529 85.1927C108.901 85.1927 108.393 84.6837 108.393 84.0606ZM106.133 84.0606C106.133 85.9324 107.657 87.4564 109.529 87.4564C111.4 87.4564 112.925 85.936 112.925 84.0606C112.925 82.1858 111.401 80.6616 109.529 80.6616C107.656 80.6616 106.133 82.1893 106.133 84.0606Z" fill="#FFFDFA" stroke="#FFFDFA" stroke-width="0.75"/>
<path d="M113.683 19.8504C113.683 18.8066 114.529 17.9599 115.573 17.9599C116.614 17.9599 117.464 18.8069 117.464 19.8504C117.464 20.8943 116.617 21.741 115.573 21.741C114.529 21.741 113.683 20.8943 113.683 19.8504ZM111.422 19.8504C111.422 22.1427 113.285 24.0014 115.573 24.0014C117.862 24.0014 119.724 22.1392 119.724 19.8504C119.724 17.5616 117.862 15.6995 115.573 15.6995C113.285 15.6995 111.422 17.5581 111.422 19.8504Z" fill="#FFFDFA" stroke="#FFFDFA" stroke-width="0.75"/>
<path d="M59.3013 19.8504C59.3013 20.8915 60.1455 21.7358 61.1866 21.7358C62.2277 21.7358 63.072 20.8915 63.072 19.8504C63.072 18.8093 62.2277 17.9651 61.1866 17.9651C60.1455 17.9651 59.3013 18.8093 59.3013 19.8504Z" fill="#FFFDFA" stroke="#FFFDFA" stroke-width="0.75"/>
<path d="M72.8965 97.6544C72.8965 98.6983 73.7403 99.5431 74.7819 99.5431C75.8279 99.5431 76.6673 98.6939 76.6673 97.6544C76.6673 96.6138 75.8268 95.769 74.7819 95.769C73.7408 95.769 72.8965 96.6133 72.8965 97.6544Z" fill="#FFFDFA" stroke="#FFFDFA" stroke-width="0.75"/>
<path d="M131.816 34.9583C131.816 36.0022 132.659 36.847 133.701 36.847C134.747 36.847 135.586 35.9978 135.586 34.9583C135.586 33.9178 134.746 33.0729 133.701 33.0729C132.66 33.0729 131.816 33.9172 131.816 34.9583Z" fill="#FFFDFA" stroke="#FFFDFA" stroke-width="0.75"/>
<path d="M114.228 120.573C113.744 120.573 113.268 120.376 112.906 119.991C112.249 119.266 112.294 118.133 113.027 117.468L139.744 92.9941C141.391 91.4909 142.29 89.3457 142.222 87.1098C142.146 84.8738 141.104 82.7966 139.359 81.3991C138.589 80.7797 138.46 79.6618 139.079 78.8913C139.699 78.1208 140.817 77.9999 141.587 78.6118C144.148 80.6589 145.674 83.7106 145.787 86.9889C145.893 90.2597 144.571 93.4096 142.161 95.6228L115.429 120.097C115.089 120.414 114.658 120.565 114.228 120.565V120.573Z" fill="#FFFDFA"/>
<path d="M78.4987 157.005H115.369V147.577C115.369 147.079 115.58 146.611 115.943 146.263L162.172 103.381V36.9982C162.172 32.3375 158.372 28.5455 153.711 28.5455C149.051 28.5455 145.266 32.3375 145.266 36.9982C145.266 37.0133 145.259 37.0435 145.259 37.0586L143.748 81.5729C143.718 82.5624 142.902 83.3329 141.912 83.2951C141.036 83.2649 140.334 82.6153 140.213 81.7768C139.911 81.7315 139.616 81.6031 139.359 81.4067C136.519 79.1405 132.448 79.1859 129.675 81.5275C129.66 81.5426 129.653 81.5502 129.638 81.5577L78.4987 122.575V157.012V157.005ZM117.159 160.57H76.7159C75.7264 160.57 74.9333 159.777 74.9333 158.787V121.706C74.9333 121.162 75.1825 120.656 75.598 120.316L127.394 78.778C131.065 75.696 136.277 75.3335 140.311 77.728L141.693 36.9604C141.708 30.3433 147.094 24.9726 153.711 24.9726C160.328 24.9726 165.737 30.366 165.737 36.9906V104.151C165.737 104.65 165.533 105.125 165.163 105.458L118.934 148.34V158.78C118.934 159.769 118.133 160.562 117.159 160.562V160.57Z" fill="#FFFDFA"/>
<path d="M53.4807 120.573C53.0501 120.573 52.6197 120.414 52.2798 120.105L25.5545 95.6304C23.1373 93.4171 21.8155 90.2672 21.9288 86.9964C22.0346 83.7181 23.5679 80.6739 26.121 78.6193C26.8915 78.0075 28.0171 78.1283 28.6289 78.8988C29.2483 79.6693 29.1276 80.7948 28.3495 81.4067C26.6122 82.7966 25.5697 84.8814 25.4942 87.1097C25.4111 89.3381 26.3176 91.4834 27.9567 92.9941L54.6894 117.468C55.4145 118.133 55.4673 119.258 54.795 119.991C54.4476 120.376 53.9641 120.573 53.4807 120.573Z" fill="#FFFDFA"/>
<path d="M52.34 157.005H89.2099V122.567L38.0786 81.5502C38.0786 81.5502 38.0559 81.5351 38.0408 81.52C35.2686 79.1859 31.1897 79.133 28.3495 81.3991C28.1002 81.6031 27.8055 81.7239 27.5034 81.7693C27.375 82.6077 26.6725 83.2574 25.8038 83.2876C24.8142 83.3253 23.9909 82.5473 23.9532 81.5653L22.45 37.0511V36.9907C22.45 32.33 18.658 28.538 13.9974 28.538C9.33671 28.538 5.54459 32.33 5.54459 36.9907V103.373L51.7661 146.256C52.1362 146.596 52.34 147.064 52.34 147.562V156.997V157.005ZM90.9927 160.57H50.5574C49.5679 160.57 48.7671 159.777 48.7671 158.787V148.348L2.54577 105.465C2.18319 105.125 1.97168 104.65 1.97168 104.159V36.9982C1.97168 30.3736 7.36517 24.9802 13.9898 24.9802C20.6144 24.9802 25.9927 30.3585 26.0229 36.968L27.3901 77.7356C31.4314 75.341 36.6509 75.7036 40.3221 78.7855L92.103 120.324C92.526 120.664 92.7752 121.177 92.7752 121.713V158.787C92.7752 159.777 91.9746 160.57 90.9927 160.57Z" fill="#FFFDFA"/>
<path d="M126.676 160.57H41.0394C40.0499 160.57 39.2493 159.777 39.2493 158.787C39.2493 157.798 40.0499 157.005 41.0394 157.005H126.676C127.658 157.005 128.459 157.805 128.459 158.787C128.459 159.769 127.658 160.57 126.676 160.57Z" fill="#FFFDFA"/>
<path d="M155.222 151.657C153.258 151.657 151.657 150.055 151.657 148.091C151.657 146.12 153.258 144.526 155.222 144.526C157.194 144.526 158.795 146.127 158.795 148.091C158.795 150.063 157.194 151.657 155.222 151.657Z" fill="#FFFDFA"/>
<path d="M10.0463 126.495C8.17301 127.114 6.15619 126.102 5.53678 124.236C4.90982 122.371 5.92201 120.346 7.79534 119.727C9.66112 119.107 11.6855 120.112 12.3049 121.985C12.9243 123.859 11.9197 125.883 10.0463 126.503V126.495Z" fill="#FFFDFA"/>
<path d="M131.375 58.6926C129.502 59.312 127.485 58.3073 126.858 56.434C126.231 54.5607 127.243 52.5438 129.116 51.9168C130.982 51.2974 133.007 52.3096 133.626 54.1754C134.253 56.0488 133.248 58.0656 131.375 58.6926Z" fill="#FFFDFA"/>
<path d="M43.9824 41.1611C42.109 41.7805 40.0922 40.7759 39.4652 38.9025C38.8383 37.0292 39.8505 35.0123 41.7238 34.3854C43.5896 33.766 45.614 34.7782 46.2334 36.644C46.8603 38.5173 45.8557 40.5341 43.9824 41.1611Z" fill="#FFFDFA"/>
<path d="M156.355 137.199C154.482 137.826 152.465 136.813 151.838 134.94C151.211 133.067 152.224 131.05 154.097 130.423C155.963 129.804 157.987 130.808 158.606 132.682C159.226 134.547 158.214 136.572 156.355 137.191V137.199Z" fill="#FFFDFA"/>
<path d="M144.518 149.866H133.815C132.825 149.866 132.025 149.066 132.025 148.084C132.025 147.102 132.825 146.301 133.815 146.301H144.518C145.508 146.301 146.309 147.102 146.309 148.084C146.309 149.066 145.508 149.866 144.518 149.866Z" fill="#FFFDFA"/>
<path d="M32.2694 27.7373C30.3055 27.7373 28.7041 26.1434 28.7041 24.1719C28.7041 22.2004 30.3055 20.6065 32.2694 20.6065C34.241 20.6065 35.8424 22.2004 35.8424 24.1719C35.8424 26.1434 34.241 27.7373 32.2694 27.7373Z" fill="#FFFDFA"/>
<path d="M26.763 14.2765H8.92101C7.93147 14.2765 7.13843 13.4758 7.13843 12.4938C7.13843 11.5118 7.93147 10.7112 8.92101 10.7112H26.763C27.7526 10.7112 28.5456 11.5043 28.5456 12.4938C28.5456 13.4834 27.7526 14.2765 26.763 14.2765Z" fill="#FFFDFA"/>
<path d="M12.4864 3.56537H1.78258C0.800594 3.56537 0 2.77223 0 1.78268C0 0.793144 0.800594 0 1.78258 0H12.4864C13.4684 0 14.2689 0.800698 14.2689 1.78268C14.2689 2.76467 13.4684 3.56537 12.4864 3.56537Z" fill="#FFFDFA"/>
<path d="M16.0594 139.163C13.1059 139.163 10.7038 141.565 10.7038 144.518C10.7038 147.472 13.1059 149.866 16.0594 149.866C19.013 149.866 21.4074 147.464 21.4074 144.518C21.4074 141.572 19.0054 139.163 16.0594 139.163ZM16.0594 153.432C11.1344 153.432 7.13843 149.436 7.13843 144.511C7.13843 139.586 11.1344 135.59 16.0594 135.59C20.9845 135.59 24.9803 139.593 24.9803 144.511C24.9803 149.428 20.9694 153.432 16.0594 153.432Z" fill="#FFFDFA"/>
<path d="M39.2493 57.0912C37.2854 57.0912 35.6764 58.6926 35.6764 60.6566C35.6764 62.6205 37.2854 64.2219 39.2493 64.2219C41.2133 64.2219 42.8147 62.6205 42.8147 60.6566C42.8147 58.6926 41.2133 57.0912 39.2493 57.0912ZM39.2493 67.7949C35.3138 67.7949 32.1111 64.5921 32.1111 60.6566C32.1111 56.7211 35.3138 53.5183 39.2493 53.5183C43.1848 53.5183 46.3876 56.7135 46.3876 60.6566C46.3876 64.5996 43.1848 67.7949 39.2493 67.7949Z" fill="#FFFDFA"/>
<path d="M138.09 5.28757C135.136 5.28757 132.734 7.68966 132.734 10.6432C132.734 13.5967 135.136 15.9988 138.09 15.9988C141.043 15.9988 143.446 13.5967 143.446 10.6432C143.446 7.68966 141.043 5.28757 138.09 5.28757ZM138.09 19.5641C133.172 19.5641 129.169 15.5607 129.169 10.6432C129.169 5.72569 133.172 1.7222 138.09 1.7222C143.007 1.7222 147.019 5.72569 147.019 10.6432C147.019 15.5607 143.007 19.5641 138.09 19.5641Z" fill="#FFFDFA"/>
</svg>
