<svg width="160" height="167" viewBox="0 0 160 167" fill="none" xmlns="http://www.w3.org/2000/svg">
<path d="M50.1761 72.3643C52.7165 78.6327 56.7025 83.9525 61.7161 87.7425C66.8818 91.6488 72.8914 93.7209 79.0936 93.7209C85.2958 93.7209 91.3053 91.6488 96.471 87.7426C101.484 83.953 105.47 78.6338 108.01 72.3661C108.132 72.0702 108.132 71.7337 108.01 71.4378M50.1761 72.3643L50.7553 72.1295L50.1762 72.3645C50.1761 72.3644 50.1761 72.3644 50.1761 72.3643ZM50.1761 72.3643C50.0563 72.0689 50.0546 71.7357 50.1768 71.438C52.7173 65.1705 56.7029 59.8513 61.7161 56.0641C66.8818 52.1579 72.8914 50.0858 79.0936 50.0858C85.2958 50.0858 91.3053 52.1579 96.471 56.0641C101.484 59.8536 105.47 65.1728 108.01 71.4378M108.01 71.4378C108.011 71.4385 108.011 71.4391 108.011 71.4398L107.432 71.6746M108.01 71.4378C108.01 71.4373 108.01 71.4367 108.01 71.4362L107.432 71.6746M107.432 71.6746C104.93 65.5045 101.01 60.2791 96.0941 56.5626L107.432 71.6746ZM79.0936 91.2578C67.9786 91.2578 57.6214 83.7221 52.6449 71.9033C57.6214 60.0844 67.9787 52.5464 79.0936 52.5464C90.2085 52.5464 100.566 60.0844 105.542 71.9033C100.566 83.7221 90.2085 91.2578 79.0936 91.2578Z" fill="#FFFDFA" stroke="#FFFDFA" stroke-width="1.25"/>
<path d="M67.5327 71.9022C67.5327 65.3198 72.7358 59.9941 79.0936 59.9941C85.4515 59.9941 90.6546 65.3198 90.6546 71.9022C90.6546 78.4846 85.4515 83.8103 79.0936 83.8103C72.7358 83.8103 67.5327 78.4846 67.5327 71.9022ZM65.2233 71.9044C65.2233 79.7433 71.4273 86.1521 79.0936 86.1521C86.7599 86.1521 92.964 79.7457 92.964 71.9044C92.964 64.0633 86.76 57.6545 79.0936 57.6545C71.4272 57.6545 65.2233 64.0656 65.2233 71.9044Z" fill="#FFFDFA" stroke="#FFFDFA" stroke-width="1.25"/>
<path d="M75.3031 71.9045C75.3031 70.0182 76.963 68.4094 79.0936 68.4094C81.2242 68.4094 82.884 70.0182 82.884 71.9045C82.884 73.7908 81.2242 75.3996 79.0936 75.3996C76.963 75.3996 75.3031 73.7908 75.3031 71.9045ZM72.792 71.9045C72.792 75.2087 75.6587 77.8264 79.0936 77.8264C82.5282 77.8264 85.3951 75.2113 85.3951 71.9045C85.3951 68.5981 82.5286 65.9802 79.0936 65.9802C75.6583 65.9802 72.792 68.6007 72.792 71.9045Z" fill="#FFFDFA" stroke="#FFFDFA" stroke-width="1.25"/>
<path d="M67.2863 141.93C66.4234 147.939 61.2388 152.571 54.9946 152.571C52.0579 152.571 49.6737 154.963 49.6737 157.892C49.6737 160.821 52.0579 163.213 54.9946 163.213H104.669C107.605 163.213 109.997 160.829 109.997 157.892C109.997 154.955 107.605 152.571 104.669 152.571C98.4243 152.571 93.2397 147.939 92.3769 141.93H67.2863ZM104.669 166.763H54.9946C50.1052 166.763 46.124 162.781 46.124 157.892C46.124 153.003 50.1052 149.021 54.9946 149.021C59.884 149.021 63.8652 145.04 63.8652 140.151C63.8652 139.175 64.6675 138.38 65.6363 138.38H94.0268C95.0107 138.38 95.8055 139.175 95.8055 140.151C95.8055 145.04 99.7791 149.021 104.669 149.021C109.558 149.021 113.539 153.003 113.539 157.892C113.539 162.781 109.566 166.763 104.669 166.763Z" fill="#FFFDFA"/>
<path d="M79.8354 133.059C77.875 133.059 76.2856 131.469 76.2856 129.509C76.2856 127.549 77.875 125.959 79.8354 125.959C81.7881 125.959 83.3851 127.549 83.3851 129.509C83.3851 131.462 81.7881 133.059 79.8354 133.059Z" fill="#FFFDFA"/>
<path d="M115.318 8.87814C113.357 8.87814 111.768 7.28869 111.768 5.32838C111.768 3.36807 113.357 1.77863 115.318 1.77863C117.278 1.77863 118.86 3.36807 118.86 5.32838C118.86 7.28869 117.278 8.87814 115.318 8.87814Z" fill="#FFFDFA"/>
<path d="M111.768 62.1017C109.808 62.1017 108.218 60.5122 108.218 58.5519C108.218 56.5916 109.808 55.0022 111.768 55.0022C113.728 55.0022 115.318 56.5916 115.318 58.5519C115.318 60.5047 113.728 62.1017 111.768 62.1017Z" fill="#FFFDFA"/>
<path d="M37.2537 76.2931C35.3009 76.2931 33.704 74.7037 33.704 72.7434C33.704 70.783 35.3009 69.1936 37.2537 69.1936C39.214 69.1936 40.8034 70.783 40.8034 72.7434C40.8034 74.7037 39.214 76.2931 37.2537 76.2931Z" fill="#FFFDFA"/>
<path d="M54.9944 8.87814C53.0417 8.87814 51.4447 7.28869 51.4447 5.32838C51.4447 3.36807 53.0417 1.77863 54.9944 1.77863C56.9547 1.77863 58.5441 3.36807 58.5441 5.32838C58.5517 7.28869 56.9547 8.87814 54.9944 8.87814Z" fill="#FFFDFA"/>
<path d="M83.3852 15.97C81.4248 15.97 79.8354 14.3806 79.8354 12.4203C79.8354 10.46 81.4248 8.87054 83.3852 8.87054C85.3379 8.87054 86.9349 10.46 86.9349 12.4203C86.9349 14.3806 85.3455 15.97 83.3852 15.97Z" fill="#FFFDFA"/>
<path d="M5.32064 19.5198C3.36033 19.5198 1.77832 17.9303 1.77832 15.97C1.77832 14.0097 3.36033 12.4203 5.32064 12.4203C7.28852 12.4203 8.87035 14.0097 8.87035 15.97C8.87035 17.9303 7.28852 19.5198 5.32064 19.5198Z" fill="#FFFDFA"/>
<path d="M14.1917 117.096H145.472V39.0322H14.1917V117.096ZM147.243 120.646H12.4205C11.4366 120.646 10.6495 119.851 10.6495 118.875V37.2686C10.6495 36.2847 11.4366 35.49 12.4205 35.49H147.243C148.227 35.49 149.022 36.2847 149.022 37.2686V118.875C149.022 119.851 148.227 120.646 147.243 120.646Z" fill="#FFFDFA"/>
<path d="M125.959 154.35C123.999 154.35 122.41 152.76 122.41 150.8C122.41 148.847 123.999 147.25 125.959 147.25C127.92 147.25 129.509 148.84 129.509 150.8C129.509 152.76 127.92 154.35 125.959 154.35Z" fill="#FFFDFA"/>
<path d="M147.243 152.571H136.601C135.625 152.571 134.83 151.776 134.83 150.8C134.83 149.824 135.625 149.029 136.601 149.029H147.243C148.227 149.029 149.021 149.824 149.021 150.8C149.021 151.776 148.227 152.571 147.243 152.571Z" fill="#FFFDFA"/>
<path d="M33.7036 154.35C35.6715 154.35 37.2533 152.76 37.2533 150.8C37.2533 148.847 35.6715 147.25 33.7036 147.25C31.7508 147.25 30.1613 148.84 30.1613 150.8C30.1613 152.76 31.7508 154.35 33.7036 154.35Z" fill="#FFFDFA"/>
<path d="M23.0622 152.571H12.4205C11.4366 152.571 10.6495 151.776 10.6495 150.8C10.6495 149.824 11.4366 149.029 12.4205 149.029H23.0622C24.0462 149.029 24.841 149.824 24.841 150.8C24.841 151.776 24.0462 152.571 23.0622 152.571Z" fill="#FFFDFA"/>
<path d="M24.8408 3.55733C22.8881 3.55733 21.2909 5.14676 21.2909 7.10707C21.2909 9.06739 22.8881 10.6568 24.8408 10.6568C26.7936 10.6568 28.3829 9.06739 28.3829 7.10707C28.3829 5.14676 26.8011 3.55733 24.8408 3.55733ZM24.8408 14.199C20.9278 14.199 17.7412 11.0201 17.7412 7.09951C17.7412 3.17889 20.9278 0 24.8408 0C28.7539 0 31.9327 3.17889 31.9327 7.09951C31.9327 11.0201 28.7539 14.199 24.8408 14.199Z" fill="#FFFDFA"/>
<path d="M143.7 3.55729C140.764 3.55729 138.38 5.94145 138.38 8.87814C138.38 11.8148 140.764 14.199 143.7 14.199C146.637 14.199 149.021 11.8073 149.021 8.87814C149.021 5.94902 146.63 3.55729 143.7 3.55729ZM143.7 17.7487C138.803 17.7487 134.83 13.7676 134.83 8.87814C134.83 3.98871 138.803 0.00753784 143.7 0.00753784C148.597 0.00753784 152.571 3.98871 152.571 8.87814C152.571 13.7676 148.59 17.7487 143.7 17.7487Z" fill="#FFFDFA"/>
<path d="M10.8838 28.3904C6.84208 28.3904 3.54971 31.6828 3.54971 35.7245V131.053C3.54971 135.095 6.84208 138.387 10.8838 138.387H148.787C152.829 138.387 156.113 135.102 156.113 131.053V35.7245C156.113 31.6828 152.829 28.3904 148.787 28.3904H10.8838ZM148.787 141.93H10.8838C4.88177 141.93 0 137.048 0 131.046V35.717C0 29.7149 4.88177 24.8331 10.8838 24.8331H148.787C154.789 24.8331 159.663 29.7149 159.663 35.717V131.046C159.663 137.048 154.789 141.93 148.787 141.93Z" fill="#FFFDFA"/>
<path d="M129.509 102.897H30.1616C29.1777 102.897 28.3831 102.103 28.3831 101.126C28.3831 100.15 29.1777 99.3552 30.1616 99.3552H129.509C130.486 99.3552 131.28 100.15 131.28 101.126C131.28 102.103 130.486 102.897 129.509 102.897Z" fill="#FFFDFA"/>
<path d="M44.3529 106.447C43.369 106.447 42.5743 105.652 42.5743 104.676V97.5765C42.5743 96.6001 43.369 95.8054 44.3529 95.8054C45.3368 95.8054 46.124 96.6001 46.124 97.5765V104.676C46.124 105.652 45.3293 106.447 44.3529 106.447Z" fill="#FFFDFA"/>
<path d="M147.243 60.3231H122.41C121.433 60.3231 120.638 59.5283 120.638 58.552C120.638 57.5756 121.433 56.7809 122.41 56.7809H147.243C148.227 56.7809 149.021 57.5756 149.021 58.552C149.021 59.5283 148.227 60.3231 147.243 60.3231Z" fill="#FFFDFA"/>
<path d="M26.612 74.5145H12.4205C11.4366 74.5145 10.6495 73.7198 10.6495 72.7434C10.6495 71.7671 11.4366 70.9724 12.4205 70.9724H26.612C27.5959 70.9724 28.3831 71.7671 28.3831 72.7434C28.3831 73.7198 27.5959 74.5145 26.612 74.5145Z" fill="#FFFDFA"/>
</svg>
