<svg width="141" height="148" viewBox="0 0 141 148" fill="none" xmlns="http://www.w3.org/2000/svg">
<path d="M44.2433 63.933C46.4913 69.4799 50.019 74.1889 54.458 77.5445L84.8616 77.046C89.2033 73.7639 92.6649 69.1493 94.874 63.6983L95.4518 63.9367C95.452 63.9361 95.4523 63.9355 95.4525 63.9349C95.5669 63.6565 95.5671 63.3402 95.4532 63.0617C93.2052 57.517 89.6774 52.808 85.2384 49.4524C80.6645 45.9937 75.3422 44.1581 69.8483 44.1581C64.3543 44.1581 59.0319 45.9937 54.458 49.4525C50.0195 52.8055 46.492 57.5139 44.244 63.0599C44.1287 63.3407 44.1304 63.6548 44.2433 63.933ZM44.2433 63.933L44.8225 63.6983L44.2433 63.9332C44.2433 63.9331 44.2433 63.9331 44.2433 63.933ZM69.8483 80.5175C60.0759 80.5175 50.9605 73.8974 46.5705 63.4985C50.9606 53.0995 60.076 46.4773 69.8483 46.4773C79.6206 46.4773 88.736 53.0995 93.1261 63.4985C88.736 73.8974 79.6206 80.5175 69.8483 80.5175Z" fill="#FFC640" stroke="#FFC640" stroke-width="1.25"/>
<path d="M59.7118 63.4975C59.7118 57.7229 64.2759 53.0543 69.8484 53.0543C75.4208 53.0543 79.9849 57.7229 79.9849 63.4975C79.9849 69.272 75.4208 73.9406 69.8484 73.9406C64.2759 73.9406 59.7118 69.272 59.7118 63.4975ZM57.5262 63.4994C57.5262 70.4605 63.0359 76.1547 69.8484 76.1547C76.6607 76.1547 82.1704 70.4625 82.1704 63.4994C82.1704 56.5365 76.6609 50.8422 69.8484 50.8422C63.0358 50.8422 57.5262 56.5386 57.5262 63.4994Z" fill="#FFC640" stroke="#FFC640" stroke-width="1.25"/>
<path d="M66.5739 63.4995C66.5739 61.8788 68.0022 60.486 69.8482 60.486C71.6943 60.486 73.1226 61.8788 73.1226 63.4995C73.1226 65.1203 71.6943 66.513 69.8482 66.513C68.0022 66.513 66.5739 65.1203 66.5739 63.4995ZM64.2102 63.4995C64.2102 66.4625 66.7794 68.8023 69.8482 68.8023C72.9169 68.8023 75.4863 66.4648 75.4863 63.4995C75.4863 60.5346 72.9173 58.1946 69.8482 58.1946C66.779 58.1946 64.2102 60.5369 64.2102 63.4995Z" fill="#FFC640" stroke="#FFC640" stroke-width="1.25"/>
<path d="M59.4211 125.339C58.6591 130.646 54.0806 134.737 48.5662 134.737C45.9728 134.737 43.8673 136.849 43.8673 139.436C43.8673 142.023 45.9728 144.135 48.5662 144.135H92.4337C95.0271 144.135 97.1393 142.029 97.1393 139.436C97.1393 136.842 95.0271 134.737 92.4337 134.737C86.9194 134.737 82.3408 130.646 81.5788 125.339H59.4211ZM92.4337 147.27H48.5662C44.2483 147.27 40.7325 143.754 40.7325 139.436C40.7325 135.118 44.2483 131.602 48.5662 131.602C52.8841 131.602 56.3999 128.086 56.3999 123.768C56.3999 122.906 57.1085 122.204 57.964 122.204H83.0359C83.9049 122.204 84.6067 122.906 84.6067 123.768C84.6067 128.086 88.1158 131.602 92.4337 131.602C96.7516 131.602 100.267 135.118 100.267 139.436C100.267 143.754 96.7583 147.27 92.4337 147.27Z" fill="#FFC640"/>
<path d="M70.5033 117.506C68.7721 117.506 67.3685 116.102 67.3685 114.371C67.3685 112.64 68.7721 111.236 70.5033 111.236C72.2278 111.236 73.6381 112.64 73.6381 114.371C73.6381 116.095 72.2278 117.506 70.5033 117.506Z" fill="#FFC640"/>
<path d="M101.838 7.84038C100.107 7.84038 98.7035 6.43673 98.7035 4.70556C98.7035 2.97439 100.107 1.57074 101.838 1.57074C103.569 1.57074 104.967 2.97439 104.967 4.70556C104.967 6.43673 103.569 7.84038 101.838 7.84038Z" fill="#FFC640"/>
<path d="M98.7033 54.8425C96.9721 54.8425 95.5685 53.4389 95.5685 51.7077C95.5685 49.9766 96.9721 48.5729 98.7033 48.5729C100.434 48.5729 101.838 49.9766 101.838 51.7077C101.838 53.4322 100.434 54.8425 98.7033 54.8425Z" fill="#FFC640"/>
<path d="M32.8991 67.3751C31.1746 67.3751 29.7643 65.9715 29.7643 64.2403C29.7643 62.5092 31.1746 61.1055 32.8991 61.1055C34.6302 61.1055 36.0338 62.5092 36.0338 64.2403C36.0338 65.9715 34.6302 67.3751 32.8991 67.3751Z" fill="#FFC640"/>
<path d="M48.5661 7.84038C46.8416 7.84038 45.4313 6.43673 45.4313 4.70556C45.4313 2.97439 46.8416 1.57074 48.5661 1.57074C50.2972 1.57074 51.7008 2.97439 51.7008 4.70556C51.7075 6.43673 50.2972 7.84038 48.5661 7.84038Z" fill="#FFC640"/>
<path d="M73.6382 14.1033C71.907 14.1033 70.5034 12.6996 70.5034 10.9685C70.5034 9.2373 71.907 7.83365 73.6382 7.83365C75.3627 7.83365 76.773 9.2373 76.773 10.9685C76.773 12.6996 75.3694 14.1033 73.6382 14.1033Z" fill="#FFC640"/>
<path d="M4.69869 17.2381C2.96752 17.2381 1.57043 15.8344 1.57043 14.1033C1.57043 12.3721 2.96752 10.9684 4.69869 10.9684C6.43654 10.9684 7.83347 12.3721 7.83347 14.1033C7.83347 15.8344 6.43654 17.2381 4.69869 17.2381Z" fill="#FFC640"/>
<path d="M12.5328 103.409H128.468V34.4697H12.5328V103.409ZM130.032 106.544H10.9686C10.0997 106.544 9.40466 105.842 9.40466 104.98V32.9123C9.40466 32.0434 10.0997 31.3415 10.9686 31.3415H130.032C130.901 31.3415 131.602 32.0434 131.602 32.9123V104.98C131.602 105.842 130.901 106.544 130.032 106.544Z" fill="#FFC640"/>
<path d="M111.236 136.308C109.505 136.308 108.101 134.904 108.101 133.173C108.101 131.448 109.505 130.038 111.236 130.038C112.967 130.038 114.371 131.442 114.371 133.173C114.371 134.904 112.967 136.308 111.236 136.308Z" fill="#FFC640"/>
<path d="M130.031 134.737H120.634C119.771 134.737 119.069 134.035 119.069 133.173C119.069 132.311 119.771 131.609 120.634 131.609H130.031C130.9 131.609 131.602 132.311 131.602 133.173C131.602 134.035 130.9 134.737 130.031 134.737Z" fill="#FFC640"/>
<path d="M29.7639 136.308C31.5017 136.308 32.8987 134.904 32.8987 133.173C32.8987 131.448 31.5017 130.038 29.7639 130.038C28.0394 130.038 26.6356 131.442 26.6356 133.173C26.6356 134.904 28.0394 136.308 29.7639 136.308Z" fill="#FFC640"/>
<path d="M20.3664 134.737H10.9686C10.0997 134.737 9.40466 134.035 9.40466 133.173C9.40466 132.311 10.0997 131.609 10.9686 131.609H20.3664C21.2354 131.609 21.9373 132.311 21.9373 133.173C21.9373 134.035 21.2354 134.737 20.3664 134.737Z" fill="#FFC640"/>
<path d="M21.9372 3.14151C20.2127 3.14151 18.8023 4.54515 18.8023 6.27632C18.8023 8.00749 20.2127 9.41114 21.9372 9.41114C23.6617 9.41114 25.0653 8.00749 25.0653 6.27632C25.0653 4.54515 23.6684 3.14151 21.9372 3.14151ZM21.9372 12.5393C18.4816 12.5393 15.6675 9.73198 15.6675 6.26964C15.6675 2.8073 18.4816 0 21.9372 0C25.3929 0 28.2001 2.8073 28.2001 6.26964C28.2001 9.73198 25.3929 12.5393 21.9372 12.5393Z" fill="#FFC640"/>
<path d="M126.903 3.14147C124.31 3.14147 122.204 5.24695 122.204 7.84036C122.204 10.4338 124.31 12.5392 126.903 12.5392C129.497 12.5392 131.602 10.4271 131.602 7.84036C131.602 5.25363 129.49 3.14147 126.903 3.14147ZM126.903 15.6741C122.579 15.6741 119.069 12.1583 119.069 7.84036C119.069 3.52246 122.579 0.00665283 126.903 0.00665283C131.228 0.00665283 134.737 3.52246 134.737 7.84036C134.737 12.1583 131.221 15.6741 126.903 15.6741Z" fill="#FFC640"/>
<path d="M9.61159 25.0718C6.0423 25.0718 3.13478 27.9794 3.13478 31.5487V115.734C3.13478 119.304 6.0423 122.211 9.61159 122.211H131.395C134.964 122.211 137.865 119.31 137.865 115.734V31.5487C137.865 27.9794 134.964 25.0718 131.395 25.0718H9.61159ZM131.395 125.339H9.61159C4.31113 125.339 0 121.028 0 115.728V31.542C0 26.2415 4.31113 21.9303 9.61159 21.9303H131.395C136.696 21.9303 141 26.2415 141 31.542V115.728C141 121.028 136.696 125.339 131.395 125.339Z" fill="#FFC640"/>
<path d="M114.371 90.8696H26.6361C25.7672 90.8696 25.0654 90.1678 25.0654 89.3056C25.0654 88.4433 25.7672 87.7415 26.6361 87.7415H114.371C115.233 87.7415 115.935 88.4433 115.935 89.3056C115.935 90.1678 115.233 90.8696 114.371 90.8696Z" fill="#FFC640"/>
<path d="M39.1684 94.0044C38.2995 94.0044 37.5978 93.3026 37.5978 92.4403V86.1707C37.5978 85.3085 38.2995 84.6066 39.1684 84.6066C40.0374 84.6066 40.7326 85.3085 40.7326 86.1707V92.4403C40.7326 93.3026 40.0307 94.0044 39.1684 94.0044Z" fill="#FFC640"/>
<path d="M130.031 53.2718H108.101C107.239 53.2718 106.537 52.57 106.537 51.7078C106.537 50.8455 107.239 50.1437 108.101 50.1437H130.031C130.9 50.1437 131.602 50.8455 131.602 51.7078C131.602 52.57 130.9 53.2718 130.031 53.2718Z" fill="#FFC640"/>
<path d="M23.5012 65.8045H10.9686C10.0997 65.8045 9.40466 65.1026 9.40466 64.2404C9.40466 63.3782 10.0997 62.6763 10.9686 62.6763H23.5012C24.3701 62.6763 25.0653 63.3782 25.0653 64.2404C25.0653 65.1026 24.3701 65.8045 23.5012 65.8045Z" fill="#FFC640"/>
</svg>
