<svg width="151" height="146" viewBox="0 0 151 146" fill="none" xmlns="http://www.w3.org/2000/svg">
<path d="M62.1786 30.3167L61.9138 30.5822C66.2922 34.9485 72.1166 37.3553 78.3003 37.3553C84.4838 37.3553 90.3049 34.9486 94.6862 30.5828C95.1036 30.1695 95.1013 29.4954 94.6871 29.0813L94.6871 29.0813C94.2762 28.6703 93.6033 28.6651 93.187 29.0808C89.2059 33.0472 83.9212 35.232 78.3003 35.232C72.6795 35.232 67.3948 33.0473 63.4138 29.081C62.9986 28.6661 62.3255 28.6662 61.9104 29.0813L61.9104 29.0812L61.909 29.0827C61.4993 29.497 61.4972 30.1703 61.9149 30.5833L62.1786 30.3167ZM62.1786 30.3167C66.4867 34.6128 72.2158 36.9803 78.3003 36.9803C84.3847 36.9803 90.1109 34.6128 94.422 30.3167M62.1786 30.3167H94.422M94.422 30.3167C94.6907 30.051 94.6907 29.6151 94.422 29.3464C94.1563 29.0807 93.7204 29.0777 93.4517 29.3464C89.4004 33.3828 84.0205 35.607 78.3003 35.607C72.5801 35.607 67.2002 33.3828 63.1489 29.3464L94.422 30.3167Z" fill="#FFC640" stroke="#FFC640" stroke-width="0.75"/>
<path d="M93.1869 61.9689L93.1869 61.9689L93.1894 61.9714C93.394 62.1714 93.6613 62.2783 93.9382 62.2783C94.2093 62.2783 94.4792 62.1762 94.6871 61.9684L94.6885 61.9669C95.1009 61.55 95.103 60.8807 94.687 60.4648L94.6865 60.4642C90.3052 56.1012 84.4869 53.6943 78.3002 53.6943C72.1136 53.6943 66.2922 56.0981 61.9137 60.4644L61.9133 60.4648C61.5003 60.8778 61.4931 61.5511 61.9103 61.9684C62.3253 62.3834 62.9984 62.3835 63.4135 61.9688C67.3915 58.0025 72.6792 55.8176 78.3002 55.8176C83.9211 55.8176 89.2058 58.0025 93.1869 61.9689Z" fill="#FFC640" stroke="#FFC640" stroke-width="0.75"/>
<path d="M99.1505 42.3354C99.2296 42.8614 99.6873 43.2367 100.202 43.2367C100.254 43.2367 100.31 43.2323 100.365 43.2228C100.939 43.1329 101.338 42.5947 101.251 42.0147L101.25 42.0145C100.507 37.1012 98.2454 32.6394 94.7141 29.1081C91.1856 25.5766 86.7208 23.3152 81.8077 22.5717L81.8075 22.5717C81.2291 22.4845 80.6836 22.8792 80.5956 23.4628C80.5078 24.0452 80.9102 24.5841 81.4893 24.6716C90.5163 26.0412 97.7837 33.3057 99.1505 42.3354ZM99.1505 42.3354L99.5213 42.2796M99.1505 42.3354C99.1505 42.3355 99.1505 42.3356 99.1505 42.3357L99.5213 42.2796M99.5213 42.2796C99.572 42.6169 99.8676 42.8617 100.202 42.8617C100.235 42.8617 100.271 42.8587 100.303 42.8528M99.5213 42.2796L100.303 42.8528M100.303 42.8528C100.677 42.7961 100.936 42.4468 100.88 42.0706C100.148 37.2371 97.924 32.8484 94.4489 29.3732C90.9768 25.8981 86.5851 23.6739 81.7516 22.9425L100.303 42.8528Z" fill="#FFC640" stroke="#FFC640" stroke-width="0.75"/>
<path d="M101.251 49.029L101.251 49.0292C100.507 53.9424 98.2456 58.4071 94.7142 61.9385C91.1862 65.4695 86.7223 67.7277 81.8104 68.4745C81.7563 68.4834 81.7009 68.4881 81.6472 68.4881C81.1302 68.4881 80.6782 68.1107 80.5989 67.5852C80.507 67.0043 80.9108 66.4622 81.4898 66.3749C90.5166 65.0052 97.7839 57.7407 99.1506 48.7111L101.251 49.029ZM101.251 49.029C101.338 48.4479 100.938 47.9087 100.361 47.8203M101.251 49.029L100.361 47.8203M100.361 47.8203C99.7803 47.7282 99.238 48.1319 99.1506 48.7109L100.361 47.8203Z" fill="#FFC640" stroke="#FFC640" stroke-width="0.75"/>
<path d="M75.3287 68.4881H74.9537C74.8999 68.4881 74.8436 68.4838 74.7882 68.4742C69.877 67.7269 65.414 65.4659 61.8838 61.9387L61.8836 61.9384C58.3552 58.4071 56.0939 53.9424 55.3474 49.0294L75.3287 68.4881ZM75.3287 68.4881V68.4167M75.3287 68.4881V68.4167M75.3287 68.4167C75.6752 68.286 75.9434 67.978 76.0023 67.5832C76.0895 67.0054 75.6888 66.4627 75.1115 66.375L75.1114 66.375C66.0816 65.0054 58.817 57.7409 57.4473 48.7111C57.4473 48.711 57.4473 48.7109 57.4472 48.7108L57.0765 48.7671M75.3287 68.4167L56.2397 47.8203M57.0765 48.7671C57.0198 48.3909 56.6705 48.1311 56.2973 48.1909M57.0765 48.7671C58.4707 57.9594 65.8628 65.3515 75.0552 66.7457L57.0765 48.7671ZM56.2973 48.1909L56.2414 47.82C56.2408 47.8201 56.2402 47.8202 56.2397 47.8203M56.2973 48.1909L56.238 47.8206C56.2386 47.8205 56.2391 47.8204 56.2397 47.8203M56.2973 48.1909C55.9211 48.2476 55.6614 48.5999 55.7181 48.9731M56.2397 47.8203C55.6606 47.9086 55.2594 48.4507 55.3474 49.0294L55.7181 48.9731M55.7181 48.9731C56.4525 53.8066 58.6767 58.1983 62.1488 61.6734L55.7181 48.9731Z" fill="#FFC640" stroke="#FFC640" stroke-width="0.75"/>
<path d="M55.3473 42.0147L55.3474 42.0143C56.0938 37.1015 58.3521 32.6367 61.8837 29.1081L55.3473 42.0147ZM55.3473 42.0147C55.2604 42.5913 55.6541 43.1266 56.2231 43.2212C56.2976 43.2371 56.3646 43.2369 56.3934 43.2368C56.3954 43.2368 56.3972 43.2368 56.3988 43.2368C56.9138 43.2368 57.368 42.8641 57.4472 42.3358C58.8168 33.3059 66.0815 26.0413 75.1114 24.6717L75.1115 24.6716C75.6885 24.5839 76.0899 24.0444 76.0022 23.4628C75.9149 22.8838 75.3726 22.4799 74.7916 22.5719C69.8791 23.3157 65.4148 25.577 61.8838 29.108L55.3473 42.0147Z" fill="#FFC640" stroke="#FFC640" stroke-width="0.75"/>
<path d="M74.0346 15.0355L74.0333 15.0357C60.4743 16.9157 49.6945 27.6983 47.8142 41.2541C47.7321 41.8316 48.1325 42.3694 48.7108 42.4528C48.7738 42.4638 48.8333 42.4636 48.8581 42.4635C48.8601 42.4635 48.8618 42.4635 48.8632 42.4635C49.3875 42.4635 49.8414 42.081 49.9154 41.5491L49.9154 41.5489C51.6657 28.9282 61.7037 18.8903 74.3244 17.14L74.3259 17.1397C74.9042 17.0571 75.3119 16.5238 75.2295 15.9409C75.15 15.3568 74.6123 14.9576 74.0346 15.0355Z" fill="#FFC640" stroke="#FFC640" stroke-width="0.75"/>
<path d="M81.7397 15.9952L81.368 15.9451C81.4466 15.3627 81.9862 14.9559 82.5654 15.0387C96.124 16.9191 106.907 27.6989 108.787 41.2578L108.787 41.2591C108.865 41.8358 108.467 42.3698 107.889 42.4558C107.825 42.4666 107.769 42.4665 107.74 42.4665L107.734 42.4665H107.359V42.3949C107.008 42.2623 106.738 41.9481 106.682 41.549L106.682 41.5489C104.932 28.9282 94.894 18.8902 82.2763 17.1399L82.3278 16.7685M81.7397 15.9952C81.6889 16.3684 81.9516 16.7177 82.3278 16.7685M81.7397 15.9952L81.3681 15.9447C81.2896 16.5217 81.6946 17.0614 82.2777 17.1401L82.3278 16.7685M81.7397 15.9952C81.7904 15.619 82.1397 15.3563 82.5129 15.41C95.9059 17.267 106.558 27.9163 108.415 41.3093L107.054 41.4973C105.28 28.7104 95.1117 18.5418 82.3278 16.7685" fill="#FFC640" stroke="#FFC640" stroke-width="0.75"/>
<path d="M81.3681 75.1016L81.3683 75.1031C81.4421 75.6337 81.8978 76.0205 82.4204 76.0205C82.4712 76.0205 82.5235 76.0158 82.5743 76.0071C96.1303 74.1244 106.907 63.3427 108.787 49.7889L108.787 49.7875C108.865 49.2087 108.465 48.673 107.883 48.5899C107.298 48.5063 106.765 48.9188 106.683 49.4928L106.682 49.4948C104.932 62.1155 94.894 72.1534 82.2763 73.9037L82.2752 73.9039C81.6913 73.9867 81.2899 74.5219 81.3681 75.1016ZM81.7397 75.0514C81.689 74.6752 81.9487 74.3289 82.3279 74.2752L81.7397 75.0514Z" fill="#FFC640" stroke="#FFC640" stroke-width="0.75"/>
<path d="M48.1856 49.7373L47.8141 49.7888C49.6937 63.3449 60.4692 74.1231 74.024 76.0067C74.0767 76.0164 74.1299 76.0205 74.1803 76.0205C74.7022 76.0205 75.155 75.6374 75.2293 75.107C75.3124 74.5236 74.9046 73.9896 74.3259 73.9069L74.3245 73.9067C61.7039 72.1534 51.666 62.1157 49.9155 49.4983C49.8366 48.9172 49.3012 48.5103 48.7191 48.5927C48.1379 48.6719 47.7311 49.208 47.8143 49.7904L48.1856 49.7373ZM48.1856 49.7373C48.1318 49.3612 48.3945 49.0149 48.7707 48.9641L74.858 75.0544C74.8102 75.3977 74.5177 75.6455 74.1803 75.6455C74.1475 75.6455 74.1146 75.6425 74.0848 75.6366C60.6918 73.7796 50.0425 63.1303 48.1856 49.7373Z" fill="#FFC640" stroke="#FFC640" stroke-width="0.75"/>
<path d="M59.7546 46.5865H96.8434C97.4297 46.5865 97.905 46.1111 97.905 45.5248C97.905 44.9386 97.4297 44.4631 96.8434 44.4631H59.7546C59.1683 44.4631 58.6929 44.9385 58.6929 45.5248C58.6929 46.1111 59.1683 46.5865 59.7546 46.5865Z" fill="#FFC640" stroke="#FFC640" stroke-width="0.75"/>
<path d="M77.2385 64.7544C77.2385 65.3407 77.7139 65.8161 78.3002 65.8161C78.8865 65.8161 79.3618 65.3406 79.3618 64.7544V26.2922C79.3618 25.7059 78.8865 25.2305 78.3002 25.2305C77.7139 25.2305 77.2385 25.7059 77.2385 26.2922V64.7544Z" fill="#FFC640" stroke="#FFC640" stroke-width="0.75"/>
<path d="M81.8071 67.8402H81.4321C81.0681 67.8402 80.7134 67.6516 80.5153 67.316C80.2136 66.809 80.3885 66.1591 80.892 65.8616L80.8925 65.8613C83.0231 64.6071 84.8844 61.9191 86.2137 58.3086C87.5385 54.7103 88.3148 50.2482 88.3148 45.5218C88.3148 40.7953 87.5385 36.3333 86.2137 32.735C84.8844 29.1245 83.0231 26.4365 80.8925 25.1823L81.0827 24.8591M81.8071 67.8402L81.7784 67.3667M81.8071 67.8402V67.768M81.8071 67.8402V67.768M81.0827 24.8591L80.8942 25.1833C80.3868 24.8881 80.2146 24.2333 80.5152 23.7277C80.8114 23.2247 81.4644 23.0547 81.9682 23.3505L81.9686 23.3507C84.5501 24.8701 86.6631 27.8832 88.1298 31.7507C89.5999 35.627 90.4381 40.405 90.4381 45.5188C90.4381 50.6326 89.5999 55.4114 88.1298 59.2884C86.6632 63.1562 84.5505 66.1699 81.9693 67.6894M81.0827 24.8591C80.7543 24.6681 80.6439 24.2441 80.838 23.9187L81.0827 66.1844C85.561 63.5482 88.6898 55.0515 88.6898 45.5218C88.6898 35.9921 85.561 27.4953 81.0827 24.8591ZM81.9693 67.6894C81.9691 67.6896 81.9688 67.6897 81.9686 67.6899L81.7784 67.3667M81.9693 67.6894C81.9695 67.6893 81.9698 67.6892 81.97 67.689L81.7784 67.3667M81.9693 67.6894C81.9165 67.7208 81.8622 67.7469 81.8071 67.768M81.7784 67.3667C81.6679 67.4324 81.5485 67.4622 81.4321 67.4622H81.8071V67.4652V67.768M81.3683 67.4622C81.2579 67.4519 81.1509 67.4149 81.0571 67.354V67.4622V67.4652H81.4321C81.4107 67.4652 81.3894 67.4642 81.3683 67.4622Z" fill="#FFC640" stroke="#FFC640" stroke-width="0.75"/>
<path d="M74.6305 23.3528L74.6289 23.3537C72.0489 24.8716 69.9358 27.884 68.4687 31.7514C66.9982 35.6277 66.1593 40.4065 66.1593 45.5218C66.1593 50.6372 66.9982 55.4166 68.4687 59.2937C69.9357 63.1615 72.0484 66.1745 74.6282 67.6925C74.682 67.7244 74.7372 67.7509 74.7934 67.7721V67.8432H75.1684C75.531 67.8432 75.8873 67.6556 76.0831 67.3174C76.3831 66.8111 76.2088 66.163 75.7097 65.8654L75.7078 65.8642C73.5758 64.61 71.7145 61.9228 70.3856 58.3128C69.0612 54.7149 68.2856 50.2528 68.2856 45.5248C68.2856 40.7968 69.0612 36.3347 70.3856 32.7368C71.7145 29.1268 73.5758 26.4396 75.7078 25.1854L75.7097 25.1842C76.2097 24.8861 76.3827 24.2406 76.083 23.7321C75.7856 23.2223 75.1343 23.0596 74.6305 23.3528Z" fill="#FFC640" stroke="#FFC640" stroke-width="0.75"/>
<path d="M98.5946 45.5218C98.5946 44.215 99.657 43.1501 100.966 43.1501C102.273 43.1501 103.338 44.2125 103.338 45.5218C103.338 46.8318 102.275 47.8964 100.966 47.8964C99.6575 47.8964 98.5946 46.8291 98.5946 45.5218ZM96.4683 45.5218C96.4683 48.0038 98.4842 50.0198 100.966 50.0198C103.446 50.0198 105.461 48.0005 105.461 45.5218C105.461 43.0429 103.448 41.0268 100.966 41.0268C98.4845 41.0268 96.4683 43.0394 96.4683 45.5218Z" fill="#FFC640" stroke="#FFC640" stroke-width="0.75"/>
<path d="M53.2629 45.5218C53.2629 44.2152 54.328 43.1501 55.6345 43.1501C56.9413 43.1501 58.0062 44.2125 58.0062 45.5218C58.0062 46.8316 56.9408 47.8964 55.6345 47.8964C54.3285 47.8964 53.2629 46.8289 53.2629 45.5218ZM51.1395 45.5218C51.1395 48.0037 53.1553 50.0198 55.6345 50.0198C58.114 50.0198 60.1295 48.0005 60.1295 45.5218C60.1295 43.0427 58.1136 41.0268 55.6345 41.0268C53.1556 41.0268 51.1395 43.0395 51.1395 45.5218Z" fill="#FFC640" stroke="#FFC640" stroke-width="0.75"/>
<path d="M75.9286 22.8589C75.9286 21.5489 76.9913 20.4843 78.3003 20.4843C79.6063 20.4843 80.6719 21.5518 80.6719 22.8589C80.6719 24.1657 79.6096 25.2306 78.3003 25.2306C76.9908 25.2306 75.9286 24.1684 75.9286 22.8589ZM73.8053 22.8589C73.8053 25.338 75.8212 27.3539 78.3003 27.3539C80.7794 27.3539 82.7953 25.338 82.7953 22.8589C82.7953 20.3798 80.7794 18.3639 78.3003 18.3639C75.8212 18.3639 73.8053 20.3798 73.8053 22.8589Z" fill="#FFC640" stroke="#FFC640" stroke-width="0.75"/>
<path d="M75.9286 68.1877C75.9286 66.8809 76.991 65.8161 78.3003 65.8161C79.6068 65.8161 80.6719 66.8812 80.6719 68.1877C80.6719 69.4945 79.6096 70.5594 78.3003 70.5594C76.991 70.5594 75.9286 69.4945 75.9286 68.1877ZM73.8053 68.1877C73.8053 70.6665 75.8209 72.6857 78.3003 72.6857C80.7797 72.6857 82.7953 70.6665 82.7953 68.1877C82.7953 65.7087 80.7794 63.6927 78.3003 63.6927C75.8212 63.6927 73.8053 65.7087 73.8053 68.1877Z" fill="#FFC640" stroke="#FFC640" stroke-width="0.75"/>
<path d="M49.8263 72.9944C49.8263 72.0674 50.5836 71.3094 51.5143 71.3094C52.442 71.3094 53.1993 72.0644 53.1993 72.9944C53.1993 73.9248 52.4447 74.6794 51.5143 74.6794C50.5836 74.6794 49.8263 73.9214 49.8263 72.9944ZM47.703 72.9974C47.703 75.0975 49.4116 76.8057 51.5143 76.8057C53.6142 76.8057 55.3226 75.0973 55.3226 72.9974C55.3226 70.8977 53.6174 69.1891 51.5143 69.1891C49.4116 69.1891 47.703 70.8973 47.703 72.9974Z" fill="#FFC640" stroke="#FFC640" stroke-width="0.75"/>
<path d="M98.5918 76.433C98.5918 75.8843 99.0395 75.4347 99.5902 75.4347C100.141 75.4347 100.589 75.8843 100.589 76.433C100.589 76.9807 100.142 77.4284 99.5902 77.4284C99.0384 77.4284 98.5918 76.9807 98.5918 76.433ZM96.4685 76.433C96.4685 78.1538 97.8694 79.5547 99.5902 79.5547C101.311 79.5547 102.712 78.157 102.712 76.433C102.712 74.7096 101.311 73.3084 99.5902 73.3084C97.8689 73.3084 96.4685 74.7128 96.4685 76.433Z" fill="#FFC640" stroke="#FFC640" stroke-width="0.75"/>
<path d="M103.401 18.0492C103.401 17.1189 104.156 16.3642 105.086 16.3642C106.014 16.3642 106.771 17.1192 106.771 18.0492C106.771 18.9796 106.017 19.7342 105.086 19.7342C104.156 19.7342 103.401 18.9796 103.401 18.0492ZM101.278 18.0492C101.278 20.1523 102.986 21.8576 105.086 21.8576C107.186 21.8576 108.894 20.1491 108.894 18.0492C108.894 15.9493 107.186 14.2409 105.086 14.2409C102.986 14.2409 101.278 15.9461 101.278 18.0492Z" fill="#FFC640" stroke="#FFC640" stroke-width="0.75"/>
<path d="M53.8862 18.0492C53.8862 19.0147 54.6691 19.7976 55.6346 19.7976C56.6 19.7976 57.3829 19.0147 57.3829 18.0492C57.3829 17.0838 56.6 16.3009 55.6346 16.3009C54.6691 16.3009 53.8862 17.0838 53.8862 18.0492Z" fill="#FFC640" stroke="#FFC640" stroke-width="0.75"/>
<path d="M66.2479 88.7933C66.2479 89.7612 67.0303 90.5446 67.9963 90.5446C68.9663 90.5446 69.7446 89.7571 69.7446 88.7933C69.7446 87.8284 68.9652 87.045 67.9963 87.045C67.0309 87.045 66.2479 87.8279 66.2479 88.7933Z" fill="#FFC640" stroke="#FFC640" stroke-width="0.75"/>
<path d="M119.821 31.7862C119.821 32.7541 120.603 33.5375 121.569 33.5375C122.539 33.5375 123.317 32.7501 123.317 31.7862C123.317 30.8213 122.538 30.0379 121.569 30.0379C120.604 30.0379 119.821 30.8208 119.821 31.7862Z" fill="#FFC640" stroke="#FFC640" stroke-width="0.75"/>
<path d="M103.863 109.632C103.423 109.632 102.99 109.454 102.661 109.103C102.063 108.444 102.104 107.414 102.771 106.809L127.064 84.5559C128.561 83.1891 129.379 81.2385 129.317 79.2055C129.248 77.1725 128.3 75.2837 126.714 74.0131C126.013 73.4499 125.896 72.4333 126.459 71.7328C127.023 71.0322 128.039 70.9223 128.74 71.4786C131.068 73.34 132.456 76.1148 132.559 79.0956C132.655 82.0696 131.453 84.9337 129.262 86.9461L104.955 109.199C104.646 109.488 104.254 109.625 103.863 109.625V109.632Z" fill="#FFC640"/>
<path d="M71.3757 142.758H104.9V134.186C104.9 133.733 105.092 133.307 105.422 132.991L147.456 93.9999V33.641C147.456 29.4032 144.001 25.9554 139.764 25.9554C135.526 25.9554 132.085 29.4032 132.085 33.641C132.085 33.6547 132.078 33.6822 132.078 33.696L130.704 74.171C130.677 75.0708 129.935 75.7713 129.035 75.737C128.239 75.7095 127.6 75.1188 127.49 74.3565C127.215 74.3152 126.947 74.1985 126.714 74.0199C124.131 71.9594 120.429 72.0006 117.909 74.1298C117.895 74.1435 117.888 74.1504 117.874 74.1573L71.3757 111.452V142.765V142.758ZM106.528 146H69.7547C68.855 146 68.1339 145.279 68.1339 144.379V110.662C68.1339 110.168 68.3605 109.708 68.7382 109.399L115.834 71.6297C119.172 68.8274 123.912 68.4978 127.579 70.675L128.836 33.6067C128.85 27.59 133.747 22.7066 139.764 22.7066C145.78 22.7066 150.698 27.6106 150.698 33.6341V94.7004C150.698 95.1537 150.513 95.5864 150.176 95.8886L108.142 134.88V144.372C108.142 145.272 107.414 145.993 106.528 145.993V146Z" fill="#FFC640"/>
<path d="M48.6278 109.632C48.2363 109.632 47.8449 109.488 47.5359 109.206L23.2356 86.953C21.0378 84.9405 19.836 82.0764 19.939 79.1025C20.0351 76.1216 21.4293 73.3537 23.7508 71.4855C24.4513 70.9291 25.4748 71.039 26.0311 71.7396C26.5943 72.4402 26.4845 73.4636 25.7771 74.0199C24.1973 75.2837 23.2495 77.1793 23.1808 79.2055C23.1053 81.2316 23.9295 83.1822 25.4199 84.5559L49.7268 106.809C50.3862 107.414 50.4342 108.437 49.8229 109.103C49.507 109.454 49.0674 109.632 48.6278 109.632Z" fill="#FFC640"/>
<path d="M47.5907 142.758H81.115V111.445L34.6234 74.1504C34.6234 74.1504 34.6027 74.1367 34.589 74.1229C32.0683 72.0006 28.3595 71.9525 25.777 74.013C25.5504 74.1985 25.2824 74.3084 25.0077 74.3496C24.8909 75.112 24.2522 75.7026 23.4623 75.7301C22.5626 75.7645 21.814 75.057 21.7796 74.1641L20.4128 33.6891V33.6341C20.4128 29.3964 16.965 25.9485 12.7272 25.9485C8.48946 25.9485 5.04143 29.3964 5.04143 33.6341V93.993L47.0688 132.984C47.4054 133.294 47.5907 133.719 47.5907 134.173V142.751V142.758ZM82.736 146H45.9698C45.0701 146 44.342 145.279 44.342 144.379V134.887L2.31472 95.8955C1.98504 95.5864 1.79272 95.1537 1.79272 94.7073V33.641C1.79272 27.6175 6.69682 22.7135 12.7203 22.7135C18.7439 22.7135 23.6341 27.6038 23.6615 33.6135L24.9047 70.6819C28.5793 68.5046 33.3252 68.8343 36.6632 71.6366L83.7456 109.406C84.1303 109.715 84.3568 110.182 84.3568 110.669V144.379C84.3568 145.279 83.6289 146 82.736 146Z" fill="#FFC640"/>
<path d="M115.182 146H37.3156C36.4158 146 35.6879 145.279 35.6879 144.379C35.6879 143.479 36.4158 142.758 37.3156 142.758H115.182C116.075 142.758 116.803 143.486 116.803 144.379C116.803 145.272 116.075 146 115.182 146Z" fill="#FFC640"/>
<path d="M141.138 137.895C139.352 137.895 137.896 136.439 137.896 134.654C137.896 132.861 139.352 131.412 141.138 131.412C142.93 131.412 144.386 132.868 144.386 134.654C144.386 136.446 142.93 137.895 141.138 137.895Z" fill="#FFC640"/>
<path d="M9.1347 115.017C7.43136 115.58 5.59754 114.66 5.03433 112.963C4.46426 111.267 5.38461 109.426 7.08796 108.863C8.78443 108.3 10.6251 109.213 11.1883 110.917C11.7515 112.62 10.838 114.461 9.1347 115.024V115.017Z" fill="#FFC640"/>
<path d="M119.454 53.3669C117.751 53.9301 115.917 53.0166 115.347 51.3132C114.777 49.6099 115.697 47.776 117.4 47.206C119.097 46.6428 120.938 47.5631 121.501 49.2596C122.071 50.9629 121.157 52.7968 119.454 53.3669Z" fill="#FFC640"/>
<path d="M39.9914 37.4262C38.2881 37.9894 36.4543 37.0759 35.8842 35.3726C35.3141 33.6692 36.2345 31.8354 37.9378 31.2653C39.6343 30.7021 41.475 31.6224 42.0382 33.3189C42.6083 35.0223 41.6948 36.8561 39.9914 37.4262Z" fill="#FFC640"/>
<path d="M142.168 124.749C140.464 125.319 138.631 124.399 138.06 122.696C137.49 120.992 138.411 119.159 140.114 118.589C141.811 118.025 143.651 118.939 144.214 120.642C144.778 122.339 143.857 124.179 142.168 124.743V124.749Z" fill="#FFC640"/>
<path d="M131.405 136.268H121.673C120.773 136.268 120.045 135.54 120.045 134.647C120.045 133.754 120.773 133.026 121.673 133.026H131.405C132.305 133.026 133.033 133.754 133.033 134.647C133.033 135.54 132.305 136.268 131.405 136.268Z" fill="#FFC640"/>
<path d="M29.3414 25.2204C27.5557 25.2204 26.0996 23.7712 26.0996 21.9786C26.0996 20.1859 27.5557 18.7367 29.3414 18.7367C31.1341 18.7367 32.5901 20.1859 32.5901 21.9786C32.5901 23.7712 31.1341 25.2204 29.3414 25.2204Z" fill="#FFC640"/>
<path d="M24.3346 12.9811H8.11155C7.2118 12.9811 6.49072 12.253 6.49072 11.3602C6.49072 10.4673 7.2118 9.73923 8.11155 9.73923H24.3346C25.2344 9.73923 25.9555 10.4604 25.9555 11.3602C25.9555 12.2599 25.2344 12.9811 24.3346 12.9811Z" fill="#FFC640"/>
<path d="M11.3534 3.24185H1.62083C0.727949 3.24185 0 2.52068 0 1.62093C0 0.721175 0.727949 0 1.62083 0H11.3534C12.2462 0 12.9742 0.728043 12.9742 1.62093C12.9742 2.51381 12.2462 3.24185 11.3534 3.24185Z" fill="#FFC640"/>
<path d="M14.6023 126.535C11.9167 126.535 9.73255 128.719 9.73255 131.405C9.73255 134.09 11.9167 136.268 14.6023 136.268C17.2878 136.268 19.4649 134.083 19.4649 131.405C19.4649 128.726 17.2809 126.535 14.6023 126.535ZM14.6023 139.509C10.1241 139.509 6.49072 135.876 6.49072 131.398C6.49072 126.92 10.1241 123.286 14.6023 123.286C19.0804 123.286 22.7136 126.927 22.7136 131.398C22.7136 135.869 19.0667 139.509 14.6023 139.509Z" fill="#FFC640"/>
<path d="M35.6878 51.9108C33.902 51.9108 32.4391 53.3669 32.4391 55.1526C32.4391 56.9384 33.902 58.3945 35.6878 58.3945C37.4736 58.3945 38.9296 56.9384 38.9296 55.1526C38.9296 53.3669 37.4736 51.9108 35.6878 51.9108ZM35.6878 61.6432C32.1094 61.6432 29.1973 58.731 29.1973 55.1526C29.1973 51.5742 32.1094 48.6621 35.6878 48.6621C39.2662 48.6621 42.1783 51.5674 42.1783 55.1526C42.1783 58.7379 39.2662 61.6432 35.6878 61.6432Z" fill="#FFC640"/>
<path d="M125.56 4.80777C122.874 4.80777 120.69 6.9919 120.69 9.67741C120.69 12.3629 122.874 14.5471 125.56 14.5471C128.245 14.5471 130.43 12.3629 130.43 9.67741C130.43 6.9919 128.245 4.80777 125.56 4.80777ZM125.56 17.7889C121.089 17.7889 117.448 14.1487 117.448 9.67741C117.448 5.20613 121.089 1.56592 125.56 1.56592C130.031 1.56592 133.678 5.20613 133.678 9.67741C133.678 14.1487 130.031 17.7889 125.56 17.7889Z" fill="#FFC640"/>
</svg>
